<svg xmlns="http://www.w3.org/2000/svg" xmlns:xlink="http://www.w3.org/1999/xlink" zoomAndPan="magnify" preserveAspectRatio="xMidYMid meet" version="1.0" viewBox="7.3 124.14 359.61 54.75"><defs><g/><clipPath id="c624b29b71"><path d="M 44 124.144531 L 62.054688 124.144531 L 62.054688 143 L 44 143 Z M 44 124.144531 " clip-rule="nonzero"/></clipPath><clipPath id="9f7eacc341"><path d="M 7.304688 124.144531 L 26 124.144531 L 26 143 L 7.304688 143 Z M 7.304688 124.144531 " clip-rule="nonzero"/></clipPath><clipPath id="70dded3d68"><path d="M 44 161 L 62.054688 161 L 62.054688 178.894531 L 44 178.894531 Z M 44 161 " clip-rule="nonzero"/></clipPath><clipPath id="4ae25f9a33"><path d="M 7.304688 161 L 26 161 L 26 178.894531 L 7.304688 178.894531 Z M 7.304688 161 " clip-rule="nonzero"/></clipPath></defs><path fill="#e4e3f3" d="M 61.078125 141.035156 L 57.164062 141.035156 L 57.164062 130.988281 C 57.164062 130.730469 57.117188 130.480469 57.015625 130.242188 C 56.917969 130 56.777344 129.789062 56.59375 129.605469 C 56.410156 129.421875 56.199219 129.28125 55.957031 129.183594 C 55.71875 129.082031 55.46875 129.035156 55.210938 129.035156 L 45.164062 129.035156 L 45.164062 125.125 L 55.210938 125.125 C 55.59375 125.125 55.976562 125.160156 56.355469 125.238281 C 56.730469 125.3125 57.097656 125.425781 57.453125 125.570312 C 57.808594 125.71875 58.148438 125.898438 58.46875 126.113281 C 58.789062 126.328125 59.085938 126.570312 59.355469 126.84375 C 59.628906 127.117188 59.871094 127.410156 60.085938 127.730469 C 60.300781 128.050781 60.480469 128.390625 60.628906 128.746094 C 60.777344 129.101562 60.886719 129.46875 60.960938 129.84375 C 61.039062 130.222656 61.074219 130.605469 61.078125 130.988281 Z M 61.078125 141.035156 " fill-opacity="1" fill-rule="nonzero"/><path fill="#e4e3f3" d="M 8.28125 141.035156 L 12.191406 141.035156 L 12.191406 130.988281 C 12.191406 130.730469 12.242188 130.480469 12.339844 130.242188 C 12.441406 130 12.582031 129.789062 12.765625 129.605469 C 12.949219 129.421875 13.160156 129.28125 13.398438 129.183594 C 13.640625 129.082031 13.886719 129.035156 14.148438 129.035156 L 24.195312 129.035156 L 24.195312 125.125 L 14.148438 125.125 C 13.761719 125.125 13.382812 125.160156 13.003906 125.238281 C 12.625 125.3125 12.257812 125.425781 11.902344 125.570312 C 11.546875 125.71875 11.210938 125.898438 10.890625 126.113281 C 10.570312 126.328125 10.273438 126.570312 10 126.84375 C 9.730469 127.117188 9.484375 127.410156 9.273438 127.730469 C 9.058594 128.050781 8.878906 128.390625 8.730469 128.746094 C 8.582031 129.101562 8.46875 129.46875 8.394531 129.84375 C 8.320312 130.222656 8.28125 130.605469 8.28125 130.988281 Z M 8.28125 141.035156 " fill-opacity="1" fill-rule="nonzero"/><path fill="#e4e3f3" d="M 61.078125 162.003906 L 57.164062 162.003906 L 57.164062 172.050781 C 57.164062 172.3125 57.117188 172.5625 57.015625 172.800781 C 56.917969 173.039062 56.777344 173.25 56.59375 173.433594 C 56.410156 173.617188 56.199219 173.757812 55.957031 173.859375 C 55.71875 173.957031 55.46875 174.007812 55.210938 174.007812 L 45.164062 174.007812 L 45.164062 177.917969 L 55.210938 177.917969 C 55.59375 177.917969 55.976562 177.878906 56.355469 177.804688 C 56.730469 177.730469 57.097656 177.617188 57.453125 177.46875 C 57.808594 177.324219 58.148438 177.140625 58.46875 176.925781 C 58.789062 176.714844 59.085938 176.46875 59.355469 176.199219 C 59.628906 175.925781 59.871094 175.628906 60.085938 175.308594 C 60.300781 174.988281 60.480469 174.652344 60.628906 174.296875 C 60.777344 173.941406 60.886719 173.574219 60.960938 173.195312 C 61.039062 172.820312 61.074219 172.4375 61.078125 172.050781 Z M 61.078125 162.003906 " fill-opacity="1" fill-rule="nonzero"/><path fill="#e4e3f3" d="M 8.28125 162.003906 L 12.191406 162.003906 L 12.191406 172.050781 C 12.191406 172.3125 12.242188 172.5625 12.339844 172.800781 C 12.441406 173.039062 12.582031 173.25 12.765625 173.433594 C 12.949219 173.617188 13.160156 173.757812 13.398438 173.859375 C 13.640625 173.957031 13.886719 174.007812 14.148438 174.007812 L 24.195312 174.007812 L 24.195312 177.917969 L 14.148438 177.917969 C 13.761719 177.917969 13.382812 177.878906 13.003906 177.804688 C 12.625 177.730469 12.257812 177.617188 11.902344 177.46875 C 11.546875 177.324219 11.210938 177.140625 10.890625 176.925781 C 10.570312 176.714844 10.273438 176.46875 10 176.199219 C 9.730469 175.925781 9.484375 175.628906 9.273438 175.308594 C 9.058594 174.988281 8.878906 174.652344 8.730469 174.296875 C 8.582031 173.941406 8.46875 173.574219 8.394531 173.195312 C 8.320312 172.820312 8.28125 172.4375 8.28125 172.050781 Z M 8.28125 162.003906 " fill-opacity="1" fill-rule="nonzero"/><path fill="#5143d9" d="M 47.699219 147.339844 L 46.449219 147.339844 L 46.449219 145.84375 C 46.449219 145.328125 46.398438 144.820312 46.300781 144.316406 C 46.199219 143.8125 46.050781 143.324219 45.855469 142.847656 C 45.660156 142.375 45.417969 141.925781 45.132812 141.496094 C 44.847656 141.070312 44.523438 140.675781 44.160156 140.3125 C 43.796875 139.949219 43.402344 139.625 42.972656 139.339844 C 42.546875 139.054688 42.097656 138.8125 41.621094 138.617188 C 41.148438 138.417969 40.660156 138.269531 40.15625 138.171875 C 39.652344 138.070312 39.140625 138.019531 38.628906 138.019531 L 30.730469 138.019531 C 30.214844 138.019531 29.707031 138.070312 29.203125 138.171875 C 28.699219 138.269531 28.210938 138.417969 27.734375 138.617188 C 27.261719 138.8125 26.8125 139.054688 26.382812 139.339844 C 25.957031 139.625 25.5625 139.949219 25.199219 140.3125 C 24.835938 140.675781 24.511719 141.070312 24.226562 141.496094 C 23.941406 141.925781 23.699219 142.375 23.503906 142.847656 C 23.304688 143.324219 23.15625 143.8125 23.058594 144.316406 C 22.957031 144.820312 22.90625 145.328125 22.90625 145.84375 L 22.90625 147.339844 L 21.660156 147.339844 C 21.398438 147.339844 21.152344 147.390625 20.910156 147.488281 C 20.671875 147.585938 20.460938 147.730469 20.277344 147.910156 C 20.09375 148.09375 19.953125 148.308594 19.851562 148.546875 C 19.753906 148.785156 19.703125 149.035156 19.703125 149.292969 L 19.703125 151.792969 C 19.703125 152.050781 19.753906 152.300781 19.851562 152.539062 C 19.953125 152.78125 20.09375 152.992188 20.277344 153.175781 C 20.460938 153.359375 20.671875 153.5 20.910156 153.597656 C 21.152344 153.699219 21.398438 153.746094 21.660156 153.746094 L 22.90625 153.746094 L 22.90625 155.242188 C 22.90625 159.5625 26.410156 165.019531 30.730469 165.019531 L 38.628906 165.019531 C 42.949219 165.019531 46.449219 159.5625 46.449219 155.242188 L 46.449219 153.746094 L 47.699219 153.746094 C 47.957031 153.746094 48.207031 153.699219 48.445312 153.597656 C 48.6875 153.5 48.898438 153.359375 49.082031 153.175781 C 49.265625 152.992188 49.40625 152.78125 49.503906 152.539062 C 49.605469 152.300781 49.652344 152.050781 49.652344 151.792969 L 49.652344 149.292969 C 49.652344 149.035156 49.605469 148.785156 49.503906 148.546875 C 49.40625 148.308594 49.265625 148.09375 49.082031 147.910156 C 48.898438 147.730469 48.6875 147.585938 48.445312 147.488281 C 48.207031 147.390625 47.957031 147.339844 47.699219 147.339844 Z M 47.699219 147.339844 " fill-opacity="1" fill-rule="nonzero"/><g clip-path="url(#c624b29b71)"><path fill="#5143d9" d="M 55.210938 124.144531 L 45.164062 124.144531 C 44.890625 124.144531 44.664062 124.242188 44.472656 124.433594 C 44.28125 124.621094 44.183594 124.851562 44.183594 125.125 L 44.183594 129.035156 C 44.183594 129.304688 44.28125 129.535156 44.472656 129.726562 C 44.664062 129.917969 44.890625 130.011719 45.164062 130.011719 L 55.210938 130.011719 C 55.480469 130.011719 55.710938 130.105469 55.902344 130.296875 C 56.09375 130.488281 56.1875 130.71875 56.1875 130.988281 L 56.1875 141.035156 C 56.1875 141.308594 56.285156 141.539062 56.472656 141.726562 C 56.664062 141.917969 56.894531 142.015625 57.164062 142.015625 L 61.078125 142.015625 C 61.347656 142.015625 61.578125 141.917969 61.765625 141.726562 C 61.957031 141.539062 62.054688 141.308594 62.054688 141.035156 L 62.054688 130.988281 C 62.054688 130.539062 62.007812 130.09375 61.921875 129.65625 C 61.832031 129.214844 61.703125 128.785156 61.53125 128.371094 C 61.359375 127.957031 61.148438 127.5625 60.898438 127.1875 C 60.648438 126.816406 60.363281 126.46875 60.046875 126.152344 C 59.730469 125.835938 59.382812 125.550781 59.011719 125.300781 C 58.636719 125.050781 58.242188 124.839844 57.828125 124.667969 C 57.414062 124.496094 56.984375 124.367188 56.542969 124.277344 C 56.105469 124.191406 55.660156 124.144531 55.210938 124.144531 Z M 60.097656 140.058594 L 58.144531 140.058594 L 58.144531 130.988281 C 58.144531 130.601562 58.070312 130.226562 57.917969 129.867188 C 57.769531 129.507812 57.558594 129.191406 57.285156 128.914062 C 57.007812 128.640625 56.691406 128.429688 56.332031 128.28125 C 55.972656 128.132812 55.597656 128.054688 55.210938 128.054688 L 46.140625 128.054688 L 46.140625 126.101562 L 55.210938 126.101562 C 55.53125 126.101562 55.847656 126.132812 56.164062 126.195312 C 56.476562 126.257812 56.785156 126.351562 57.078125 126.476562 C 57.375 126.597656 57.65625 126.75 57.925781 126.925781 C 58.191406 127.105469 58.4375 127.308594 58.664062 127.535156 C 58.890625 127.761719 59.09375 128.007812 59.273438 128.273438 C 59.453125 128.542969 59.601562 128.824219 59.726562 129.121094 C 59.847656 129.417969 59.941406 129.722656 60.003906 130.035156 C 60.066406 130.351562 60.097656 130.667969 60.097656 130.988281 Z M 60.097656 140.058594 " fill-opacity="1" fill-rule="nonzero"/></g><g clip-path="url(#9f7eacc341)"><path fill="#5143d9" d="M 8.28125 142.015625 L 12.191406 142.015625 C 12.460938 142.015625 12.691406 141.917969 12.882812 141.726562 C 13.074219 141.539062 13.171875 141.308594 13.171875 141.035156 L 13.171875 130.988281 C 13.171875 130.71875 13.265625 130.488281 13.457031 130.296875 C 13.648438 130.105469 13.878906 130.011719 14.148438 130.011719 L 24.195312 130.011719 C 24.464844 130.011719 24.695312 129.917969 24.886719 129.726562 C 25.078125 129.535156 25.171875 129.304688 25.171875 129.035156 L 25.171875 125.125 C 25.171875 124.851562 25.078125 124.621094 24.886719 124.433594 C 24.695312 124.242188 24.464844 124.144531 24.195312 124.144531 L 14.148438 124.144531 C 13.699219 124.144531 13.253906 124.191406 12.8125 124.277344 C 12.371094 124.367188 11.945312 124.496094 11.53125 124.667969 C 11.113281 124.839844 10.722656 125.050781 10.347656 125.300781 C 9.972656 125.550781 9.628906 125.835938 9.3125 126.152344 C 8.992188 126.46875 8.710938 126.816406 8.460938 127.1875 C 8.210938 127.5625 8 127.957031 7.828125 128.371094 C 7.65625 128.785156 7.523438 129.214844 7.4375 129.65625 C 7.347656 130.09375 7.304688 130.539062 7.304688 130.988281 L 7.304688 141.035156 C 7.304688 141.308594 7.398438 141.539062 7.589844 141.726562 C 7.78125 141.917969 8.011719 142.015625 8.28125 142.015625 Z M 9.257812 130.988281 C 9.257812 130.667969 9.292969 130.351562 9.355469 130.035156 C 9.417969 129.722656 9.511719 129.417969 9.632812 129.121094 C 9.757812 128.824219 9.90625 128.542969 10.085938 128.273438 C 10.261719 128.007812 10.464844 127.761719 10.691406 127.535156 C 10.917969 127.308594 11.167969 127.105469 11.433594 126.925781 C 11.699219 126.75 11.980469 126.597656 12.277344 126.476562 C 12.574219 126.351562 12.878906 126.257812 13.195312 126.195312 C 13.507812 126.132812 13.828125 126.101562 14.148438 126.101562 L 23.21875 126.101562 L 23.21875 128.054688 L 14.148438 128.054688 C 13.757812 128.054688 13.382812 128.132812 13.023438 128.28125 C 12.664062 128.429688 12.347656 128.640625 12.074219 128.914062 C 11.796875 129.191406 11.585938 129.507812 11.4375 129.867188 C 11.289062 130.226562 11.214844 130.601562 11.214844 130.988281 L 11.214844 140.058594 L 9.257812 140.058594 Z M 9.257812 130.988281 " fill-opacity="1" fill-rule="nonzero"/></g><g clip-path="url(#70dded3d68)"><path fill="#5143d9" d="M 61.078125 161.027344 L 57.164062 161.027344 C 56.894531 161.027344 56.664062 161.121094 56.472656 161.3125 C 56.285156 161.503906 56.1875 161.734375 56.1875 162.003906 L 56.1875 172.050781 C 56.1875 172.320312 56.09375 172.550781 55.902344 172.742188 C 55.710938 172.933594 55.480469 173.03125 55.210938 173.03125 L 45.164062 173.03125 C 44.890625 173.03125 44.664062 173.125 44.472656 173.316406 C 44.28125 173.507812 44.183594 173.738281 44.183594 174.007812 L 44.183594 177.917969 C 44.183594 178.1875 44.28125 178.417969 44.472656 178.609375 C 44.664062 178.800781 44.890625 178.894531 45.164062 178.894531 L 55.210938 178.894531 C 55.660156 178.894531 56.105469 178.851562 56.542969 178.761719 C 56.984375 178.675781 57.414062 178.542969 57.828125 178.371094 C 58.242188 178.199219 58.636719 177.988281 59.011719 177.738281 C 59.382812 177.492188 59.730469 177.207031 60.046875 176.890625 C 60.363281 176.570312 60.648438 176.226562 60.898438 175.851562 C 61.148438 175.480469 61.359375 175.085938 61.53125 174.667969 C 61.703125 174.253906 61.832031 173.828125 61.921875 173.386719 C 62.007812 172.945312 62.054688 172.5 62.054688 172.050781 L 62.054688 162.003906 C 62.054688 161.734375 61.957031 161.503906 61.765625 161.3125 C 61.578125 161.121094 61.347656 161.027344 61.078125 161.027344 Z M 60.097656 172.050781 C 60.097656 172.371094 60.066406 172.691406 60.003906 173.003906 C 59.941406 173.320312 59.847656 173.625 59.726562 173.921875 C 59.601562 174.21875 59.453125 174.5 59.273438 174.765625 C 59.09375 175.03125 58.890625 175.28125 58.664062 175.507812 C 58.4375 175.734375 58.191406 175.9375 57.925781 176.113281 C 57.65625 176.292969 57.375 176.445312 57.078125 176.566406 C 56.785156 176.691406 56.476562 176.78125 56.164062 176.84375 C 55.847656 176.910156 55.53125 176.941406 55.210938 176.941406 L 46.140625 176.941406 L 46.140625 174.984375 L 55.210938 174.984375 C 55.597656 174.984375 55.972656 174.910156 56.332031 174.761719 C 56.691406 174.613281 57.007812 174.402344 57.285156 174.125 C 57.558594 173.851562 57.769531 173.535156 57.917969 173.175781 C 58.070312 172.816406 58.144531 172.441406 58.144531 172.050781 L 58.144531 162.980469 L 60.097656 162.980469 Z M 60.097656 172.050781 " fill-opacity="1" fill-rule="nonzero"/></g><g clip-path="url(#4ae25f9a33)"><path fill="#5143d9" d="M 24.195312 173.03125 L 14.148438 173.03125 C 13.878906 173.03125 13.648438 172.933594 13.457031 172.742188 C 13.265625 172.550781 13.171875 172.320312 13.171875 172.050781 L 13.171875 162.003906 C 13.171875 161.734375 13.074219 161.503906 12.882812 161.3125 C 12.691406 161.121094 12.460938 161.027344 12.191406 161.027344 L 8.28125 161.027344 C 8.011719 161.027344 7.78125 161.121094 7.589844 161.3125 C 7.398438 161.503906 7.304688 161.734375 7.304688 162.003906 L 7.304688 172.050781 C 7.304688 172.5 7.347656 172.945312 7.4375 173.386719 C 7.523438 173.828125 7.65625 174.253906 7.828125 174.667969 C 8 175.085938 8.210938 175.480469 8.460938 175.851562 C 8.710938 176.226562 8.992188 176.570312 9.3125 176.890625 C 9.628906 177.207031 9.972656 177.492188 10.347656 177.738281 C 10.722656 177.988281 11.113281 178.199219 11.53125 178.371094 C 11.945312 178.542969 12.371094 178.675781 12.8125 178.761719 C 13.253906 178.851562 13.699219 178.894531 14.148438 178.894531 L 24.195312 178.894531 C 24.464844 178.894531 24.695312 178.800781 24.886719 178.609375 C 25.078125 178.417969 25.171875 178.1875 25.171875 177.917969 L 25.171875 174.007812 C 25.171875 173.738281 25.078125 173.507812 24.886719 173.316406 C 24.695312 173.125 24.464844 173.03125 24.195312 173.03125 Z M 23.21875 176.941406 L 14.148438 176.941406 C 13.828125 176.941406 13.507812 176.910156 13.195312 176.84375 C 12.878906 176.78125 12.574219 176.691406 12.277344 176.566406 C 11.980469 176.445312 11.699219 176.292969 11.433594 176.113281 C 11.167969 175.9375 10.917969 175.734375 10.691406 175.507812 C 10.464844 175.28125 10.261719 175.03125 10.085938 174.765625 C 9.90625 174.5 9.757812 174.21875 9.632812 173.921875 C 9.511719 173.625 9.417969 173.320312 9.355469 173.003906 C 9.292969 172.691406 9.257812 172.371094 9.257812 172.050781 L 9.257812 162.980469 L 11.214844 162.980469 L 11.214844 172.050781 C 11.214844 172.441406 11.289062 172.816406 11.4375 173.175781 C 11.585938 173.535156 11.796875 173.851562 12.074219 174.125 C 12.347656 174.402344 12.664062 174.613281 13.023438 174.761719 C 13.382812 174.910156 13.757812 174.984375 14.148438 174.984375 L 23.21875 174.984375 Z M 23.21875 176.941406 " fill-opacity="1" fill-rule="nonzero"/></g><path fill="#5143d9" d="M 47.429688 154.722656 L 47.699219 154.722656 C 48.085938 154.722656 48.460938 154.648438 48.820312 154.5 C 49.179688 154.351562 49.496094 154.140625 49.773438 153.867188 C 50.046875 153.589844 50.257812 153.273438 50.410156 152.914062 C 50.558594 152.554688 50.632812 152.179688 50.632812 151.792969 L 50.632812 149.292969 C 50.632812 148.90625 50.558594 148.53125 50.410156 148.171875 C 50.257812 147.8125 50.046875 147.496094 49.773438 147.21875 C 49.496094 146.945312 49.179688 146.734375 48.820312 146.585938 C 48.460938 146.4375 48.085938 146.363281 47.699219 146.363281 L 47.429688 146.363281 L 47.429688 145.84375 C 47.425781 145.265625 47.371094 144.691406 47.257812 144.125 C 47.144531 143.558594 46.976562 143.011719 46.753906 142.476562 C 46.535156 141.941406 46.261719 141.4375 45.941406 140.957031 C 45.621094 140.476562 45.257812 140.03125 44.847656 139.625 C 44.4375 139.214844 43.996094 138.851562 43.515625 138.527344 C 43.035156 138.207031 42.527344 137.9375 41.996094 137.714844 C 41.460938 137.496094 40.910156 137.328125 40.34375 137.214844 C 39.777344 137.101562 39.207031 137.042969 38.628906 137.042969 L 30.730469 137.042969 C 30.152344 137.042969 29.578125 137.101562 29.011719 137.214844 C 28.445312 137.328125 27.898438 137.496094 27.363281 137.714844 C 26.828125 137.9375 26.324219 138.207031 25.84375 138.527344 C 25.363281 138.851562 24.917969 139.214844 24.511719 139.625 C 24.101562 140.03125 23.738281 140.476562 23.414062 140.957031 C 23.09375 141.4375 22.824219 141.941406 22.601562 142.476562 C 22.382812 143.011719 22.214844 143.558594 22.101562 144.125 C 21.988281 144.691406 21.929688 145.265625 21.929688 145.84375 L 21.929688 146.363281 L 21.660156 146.363281 C 21.269531 146.363281 20.894531 146.4375 20.535156 146.585938 C 20.175781 146.734375 19.859375 146.945312 19.585938 147.21875 C 19.308594 147.496094 19.097656 147.8125 18.949219 148.171875 C 18.800781 148.53125 18.726562 148.90625 18.726562 149.292969 L 18.726562 151.792969 C 18.726562 152.179688 18.800781 152.554688 18.949219 152.914062 C 19.097656 153.273438 19.308594 153.589844 19.585938 153.867188 C 19.859375 154.140625 20.175781 154.351562 20.535156 154.5 C 20.894531 154.648438 21.269531 154.722656 21.660156 154.722656 L 21.929688 154.722656 L 21.929688 155.242188 C 21.929688 160.117188 25.855469 166 30.730469 166 L 38.628906 166 C 43.503906 166 47.429688 160.117188 47.429688 155.242188 Z M 45.472656 153.746094 L 45.472656 155.242188 C 45.472656 159.121094 42.246094 164.042969 38.628906 164.042969 L 30.730469 164.042969 C 27.113281 164.042969 23.886719 159.121094 23.886719 155.242188 L 23.886719 153.746094 C 23.886719 153.476562 23.789062 153.246094 23.597656 153.054688 C 23.40625 152.863281 23.175781 152.769531 22.90625 152.769531 L 21.660156 152.769531 C 21.390625 152.769531 21.160156 152.671875 20.96875 152.484375 C 20.777344 152.292969 20.679688 152.0625 20.679688 151.792969 L 20.679688 149.292969 C 20.679688 149.023438 20.777344 148.792969 20.96875 148.601562 C 21.160156 148.414062 21.390625 148.316406 21.660156 148.316406 L 22.90625 148.316406 C 23.175781 148.316406 23.40625 148.222656 23.597656 148.03125 C 23.789062 147.839844 23.886719 147.609375 23.886719 147.339844 L 23.886719 145.84375 C 23.886719 145.394531 23.929688 144.949219 24.019531 144.507812 C 24.105469 144.066406 24.234375 143.640625 24.410156 143.222656 C 24.582031 142.808594 24.792969 142.414062 25.042969 142.042969 C 25.289062 141.667969 25.574219 141.324219 25.890625 141.003906 C 26.210938 140.6875 26.554688 140.402344 26.929688 140.15625 C 27.300781 139.90625 27.695312 139.695312 28.109375 139.523438 C 28.527344 139.347656 28.953125 139.21875 29.394531 139.132812 C 29.835938 139.042969 30.28125 139 30.730469 139 L 38.628906 139 C 39.078125 139 39.523438 139.042969 39.964844 139.132812 C 40.402344 139.21875 40.832031 139.347656 41.246094 139.523438 C 41.660156 139.695312 42.054688 139.90625 42.429688 140.15625 C 42.800781 140.402344 43.148438 140.6875 43.464844 141.003906 C 43.785156 141.324219 44.066406 141.667969 44.316406 142.042969 C 44.566406 142.414062 44.777344 142.808594 44.949219 143.222656 C 45.121094 143.640625 45.25 144.066406 45.339844 144.507812 C 45.425781 144.949219 45.472656 145.394531 45.472656 145.84375 L 45.472656 147.339844 C 45.472656 147.609375 45.566406 147.839844 45.757812 148.03125 C 45.949219 148.222656 46.179688 148.316406 46.449219 148.316406 L 47.699219 148.316406 C 47.96875 148.316406 48.199219 148.414062 48.390625 148.601562 C 48.582031 148.792969 48.675781 149.023438 48.675781 149.292969 L 48.675781 151.792969 C 48.675781 152.0625 48.582031 152.292969 48.390625 152.484375 C 48.199219 152.671875 47.96875 152.769531 47.699219 152.769531 L 46.449219 152.769531 C 46.179688 152.769531 45.949219 152.863281 45.757812 153.054688 C 45.566406 153.246094 45.472656 153.476562 45.472656 153.746094 Z M 45.472656 153.746094 " fill-opacity="1" fill-rule="nonzero"/><g fill="#000000" fill-opacity="1"><g transform="translate(67.588001, 166.077251)"><g><path d="M 22.40625 -29.578125 L 22.40625 -23.03125 L 10.578125 -23.03125 L 10.578125 -17.828125 L 19.296875 -17.828125 L 19.296875 -11.578125 L 10.578125 -11.578125 L 10.578125 0 L 2.34375 0 L 2.34375 -29.578125 Z M 22.40625 -29.578125 "/></g></g></g><g fill="#000000" fill-opacity="1"><g transform="translate(91.123713, 166.077251)"><g><path d="M 1 -11.78125 C 1 -14.21875 1.441406 -16.34375 2.328125 -18.15625 C 3.210938 -19.976562 4.414062 -21.378906 5.9375 -22.359375 C 7.457031 -23.335938 9.15625 -23.828125 11.03125 -23.828125 C 12.65625 -23.828125 14.050781 -23.503906 15.21875 -22.859375 C 16.394531 -22.222656 17.304688 -21.359375 17.953125 -20.265625 L 17.953125 -23.53125 L 26.171875 -23.53125 L 26.171875 0 L 17.953125 0 L 17.953125 -3.265625 C 17.304688 -2.179688 16.390625 -1.316406 15.203125 -0.671875 C 14.015625 -0.0234375 12.625 0.296875 11.03125 0.296875 C 9.15625 0.296875 7.457031 -0.191406 5.9375 -1.171875 C 4.414062 -2.148438 3.210938 -3.554688 2.328125 -5.390625 C 1.441406 -7.222656 1 -9.351562 1 -11.78125 Z M 17.953125 -11.78125 C 17.953125 -13.289062 17.539062 -14.476562 16.71875 -15.34375 C 15.894531 -16.21875 14.878906 -16.65625 13.671875 -16.65625 C 12.441406 -16.65625 11.421875 -16.226562 10.609375 -15.375 C 9.796875 -14.519531 9.390625 -13.320312 9.390625 -11.78125 C 9.390625 -10.269531 9.796875 -9.070312 10.609375 -8.1875 C 11.421875 -7.3125 12.441406 -6.875 13.671875 -6.875 C 14.878906 -6.875 15.894531 -7.304688 16.71875 -8.171875 C 17.539062 -9.046875 17.953125 -10.25 17.953125 -11.78125 Z M 17.953125 -11.78125 "/></g></g></g><g fill="#000000" fill-opacity="1"><g transform="translate(119.651851, 166.077251)"><g><path d="M 1 -11.78125 C 1 -14.21875 1.503906 -16.34375 2.515625 -18.15625 C 3.523438 -19.976562 4.929688 -21.378906 6.734375 -22.359375 C 8.535156 -23.335938 10.597656 -23.828125 12.921875 -23.828125 C 15.910156 -23.828125 18.425781 -23.007812 20.46875 -21.375 C 22.507812 -19.738281 23.828125 -17.453125 24.421875 -14.515625 L 15.6875 -14.515625 C 15.1875 -16.054688 14.207031 -16.828125 12.75 -16.828125 C 11.71875 -16.828125 10.898438 -16.398438 10.296875 -15.546875 C 9.691406 -14.691406 9.390625 -13.4375 9.390625 -11.78125 C 9.390625 -10.132812 9.691406 -8.878906 10.296875 -8.015625 C 10.898438 -7.148438 11.71875 -6.71875 12.75 -6.71875 C 14.238281 -6.71875 15.21875 -7.484375 15.6875 -9.015625 L 24.421875 -9.015625 C 23.828125 -6.109375 22.507812 -3.828125 20.46875 -2.171875 C 18.425781 -0.523438 15.910156 0.296875 12.921875 0.296875 C 10.597656 0.296875 8.535156 -0.191406 6.734375 -1.171875 C 4.929688 -2.148438 3.523438 -3.546875 2.515625 -5.359375 C 1.503906 -7.179688 1 -9.320312 1 -11.78125 Z M 1 -11.78125 "/></g></g></g><g fill="#000000" fill-opacity="1"><g transform="translate(145.117414, 166.077251)"><g><path d="M 24.84375 -12.046875 C 24.84375 -11.398438 24.796875 -10.753906 24.703125 -10.109375 L 9.140625 -10.109375 C 9.222656 -8.828125 9.578125 -7.867188 10.203125 -7.234375 C 10.835938 -6.609375 11.644531 -6.296875 12.625 -6.296875 C 14 -6.296875 14.976562 -6.910156 15.5625 -8.140625 L 24.328125 -8.140625 C 23.960938 -6.515625 23.253906 -5.066406 22.203125 -3.796875 C 21.160156 -2.523438 19.84375 -1.523438 18.25 -0.796875 C 16.65625 -0.0664062 14.894531 0.296875 12.96875 0.296875 C 10.644531 0.296875 8.578125 -0.191406 6.765625 -1.171875 C 4.960938 -2.148438 3.550781 -3.546875 2.53125 -5.359375 C 1.507812 -7.179688 1 -9.320312 1 -11.78125 C 1 -14.25 1.503906 -16.382812 2.515625 -18.1875 C 3.523438 -19.988281 4.929688 -21.378906 6.734375 -22.359375 C 8.535156 -23.335938 10.613281 -23.828125 12.96875 -23.828125 C 15.289062 -23.828125 17.34375 -23.347656 19.125 -22.390625 C 20.914062 -21.441406 22.316406 -20.082031 23.328125 -18.3125 C 24.335938 -16.539062 24.84375 -14.453125 24.84375 -12.046875 Z M 16.453125 -14.09375 C 16.453125 -15.101562 16.113281 -15.894531 15.4375 -16.46875 C 14.769531 -17.039062 13.929688 -17.328125 12.921875 -17.328125 C 11.910156 -17.328125 11.082031 -17.050781 10.4375 -16.5 C 9.800781 -15.957031 9.382812 -15.15625 9.1875 -14.09375 Z M 16.453125 -14.09375 "/></g></g></g><g fill="#000000" fill-opacity="1"><g transform="translate(170.960553, 166.077251)"><g/></g></g><g fill="#000000" fill-opacity="1"><g transform="translate(178.962994, 166.077251)"><g><path d="M 13.515625 0.296875 C 10.066406 0.296875 7.238281 -0.519531 5.03125 -2.15625 C 2.820312 -3.789062 1.632812 -6.132812 1.46875 -9.1875 L 10.234375 -9.1875 C 10.316406 -8.15625 10.625 -7.398438 11.15625 -6.921875 C 11.6875 -6.441406 12.375 -6.203125 13.21875 -6.203125 C 13.96875 -6.203125 14.585938 -6.390625 15.078125 -6.765625 C 15.566406 -7.148438 15.8125 -7.675781 15.8125 -8.34375 C 15.8125 -9.21875 15.40625 -9.890625 14.59375 -10.359375 C 13.789062 -10.835938 12.476562 -11.367188 10.65625 -11.953125 C 8.726562 -12.597656 7.164062 -13.21875 5.96875 -13.8125 C 4.78125 -14.414062 3.742188 -15.296875 2.859375 -16.453125 C 1.984375 -17.617188 1.546875 -19.140625 1.546875 -21.015625 C 1.546875 -22.921875 2.019531 -24.550781 2.96875 -25.90625 C 3.925781 -27.257812 5.242188 -28.285156 6.921875 -28.984375 C 8.597656 -29.679688 10.5 -30.03125 12.625 -30.03125 C 16.0625 -30.03125 18.804688 -29.226562 20.859375 -27.625 C 22.921875 -26.019531 24.023438 -23.757812 24.171875 -20.84375 L 15.234375 -20.84375 C 15.203125 -21.738281 14.925781 -22.410156 14.40625 -22.859375 C 13.894531 -23.304688 13.234375 -23.53125 12.421875 -23.53125 C 11.804688 -23.53125 11.300781 -23.347656 10.90625 -22.984375 C 10.519531 -22.617188 10.328125 -22.101562 10.328125 -21.4375 C 10.328125 -20.875 10.539062 -20.390625 10.96875 -19.984375 C 11.40625 -19.578125 11.941406 -19.226562 12.578125 -18.9375 C 13.222656 -18.644531 14.175781 -18.273438 15.4375 -17.828125 C 17.3125 -17.179688 18.859375 -16.546875 20.078125 -15.921875 C 21.296875 -15.296875 22.34375 -14.414062 23.21875 -13.28125 C 24.101562 -12.144531 24.546875 -10.710938 24.546875 -8.984375 C 24.546875 -7.210938 24.101562 -5.628906 23.21875 -4.234375 C 22.34375 -2.835938 21.070312 -1.734375 19.40625 -0.921875 C 17.738281 -0.109375 15.773438 0.296875 13.515625 0.296875 Z M 13.515625 0.296875 "/></g></g></g><g fill="#000000" fill-opacity="1"><g transform="translate(204.973947, 166.077251)"><g><path d="M 17.828125 -23.75 C 20.515625 -23.75 22.644531 -22.84375 24.21875 -21.03125 C 25.800781 -19.226562 26.59375 -16.789062 26.59375 -13.71875 L 26.59375 0 L 18.375 0 L 18.375 -12.625 C 18.375 -13.96875 18.023438 -15.023438 17.328125 -15.796875 C 16.628906 -16.566406 15.691406 -16.953125 14.515625 -16.953125 C 13.285156 -16.953125 12.320312 -16.566406 11.625 -15.796875 C 10.925781 -15.023438 10.578125 -13.96875 10.578125 -12.625 L 10.578125 0 L 2.34375 0 L 2.34375 -31.046875 L 10.578125 -31.046875 L 10.578125 -20.171875 C 11.296875 -21.242188 12.273438 -22.109375 13.515625 -22.765625 C 14.765625 -23.421875 16.203125 -23.75 17.828125 -23.75 Z M 17.828125 -23.75 "/></g></g></g><g fill="#000000" fill-opacity="1"><g transform="translate(233.753799, 166.077251)"><g><path d="M 1 -11.78125 C 1 -14.21875 1.441406 -16.34375 2.328125 -18.15625 C 3.210938 -19.976562 4.414062 -21.378906 5.9375 -22.359375 C 7.457031 -23.335938 9.15625 -23.828125 11.03125 -23.828125 C 12.65625 -23.828125 14.050781 -23.503906 15.21875 -22.859375 C 16.394531 -22.222656 17.304688 -21.359375 17.953125 -20.265625 L 17.953125 -23.53125 L 26.171875 -23.53125 L 26.171875 0 L 17.953125 0 L 17.953125 -3.265625 C 17.304688 -2.179688 16.390625 -1.316406 15.203125 -0.671875 C 14.015625 -0.0234375 12.625 0.296875 11.03125 0.296875 C 9.15625 0.296875 7.457031 -0.191406 5.9375 -1.171875 C 4.414062 -2.148438 3.210938 -3.554688 2.328125 -5.390625 C 1.441406 -7.222656 1 -9.351562 1 -11.78125 Z M 17.953125 -11.78125 C 17.953125 -13.289062 17.539062 -14.476562 16.71875 -15.34375 C 15.894531 -16.21875 14.878906 -16.65625 13.671875 -16.65625 C 12.441406 -16.65625 11.421875 -16.226562 10.609375 -15.375 C 9.796875 -14.519531 9.390625 -13.320312 9.390625 -11.78125 C 9.390625 -10.269531 9.796875 -9.070312 10.609375 -8.1875 C 11.421875 -7.3125 12.441406 -6.875 13.671875 -6.875 C 14.878906 -6.875 15.894531 -7.304688 16.71875 -8.171875 C 17.539062 -9.046875 17.953125 -10.25 17.953125 -11.78125 Z M 17.953125 -11.78125 "/></g></g></g><g fill="#000000" fill-opacity="1"><g transform="translate(262.281938, 166.077251)"><g><path d="M 10.578125 -20.265625 C 11.210938 -21.359375 12.117188 -22.222656 13.296875 -22.859375 C 14.472656 -23.503906 15.859375 -23.828125 17.453125 -23.828125 C 19.328125 -23.828125 21.023438 -23.335938 22.546875 -22.359375 C 24.078125 -21.378906 25.28125 -19.976562 26.15625 -18.15625 C 27.039062 -16.34375 27.484375 -14.21875 27.484375 -11.78125 C 27.484375 -9.351562 27.039062 -7.222656 26.15625 -5.390625 C 25.28125 -3.554688 24.078125 -2.148438 22.546875 -1.171875 C 21.023438 -0.191406 19.328125 0.296875 17.453125 0.296875 C 15.859375 0.296875 14.476562 -0.0234375 13.3125 -0.671875 C 12.15625 -1.316406 11.242188 -2.179688 10.578125 -3.265625 L 10.578125 11.25 L 2.34375 11.25 L 2.34375 -23.53125 L 10.578125 -23.53125 Z M 19.125 -11.78125 C 19.125 -13.320312 18.710938 -14.519531 17.890625 -15.375 C 17.066406 -16.226562 16.050781 -16.65625 14.84375 -16.65625 C 13.644531 -16.65625 12.632812 -16.21875 11.8125 -15.34375 C 10.988281 -14.476562 10.578125 -13.289062 10.578125 -11.78125 C 10.578125 -10.25 10.988281 -9.046875 11.8125 -8.171875 C 12.632812 -7.304688 13.644531 -6.875 14.84375 -6.875 C 16.050781 -6.875 17.066406 -7.3125 17.890625 -8.1875 C 18.710938 -9.070312 19.125 -10.269531 19.125 -11.78125 Z M 19.125 -11.78125 "/></g></g></g><g fill="#000000" fill-opacity="1"><g transform="translate(290.810077, 166.077251)"><g><path d="M 24.84375 -12.046875 C 24.84375 -11.398438 24.796875 -10.753906 24.703125 -10.109375 L 9.140625 -10.109375 C 9.222656 -8.828125 9.578125 -7.867188 10.203125 -7.234375 C 10.835938 -6.609375 11.644531 -6.296875 12.625 -6.296875 C 14 -6.296875 14.976562 -6.910156 15.5625 -8.140625 L 24.328125 -8.140625 C 23.960938 -6.515625 23.253906 -5.066406 22.203125 -3.796875 C 21.160156 -2.523438 19.84375 -1.523438 18.25 -0.796875 C 16.65625 -0.0664062 14.894531 0.296875 12.96875 0.296875 C 10.644531 0.296875 8.578125 -0.191406 6.765625 -1.171875 C 4.960938 -2.148438 3.550781 -3.546875 2.53125 -5.359375 C 1.507812 -7.179688 1 -9.320312 1 -11.78125 C 1 -14.25 1.503906 -16.382812 2.515625 -18.1875 C 3.523438 -19.988281 4.929688 -21.378906 6.734375 -22.359375 C 8.535156 -23.335938 10.613281 -23.828125 12.96875 -23.828125 C 15.289062 -23.828125 17.34375 -23.347656 19.125 -22.390625 C 20.914062 -21.441406 22.316406 -20.082031 23.328125 -18.3125 C 24.335938 -16.539062 24.84375 -14.453125 24.84375 -12.046875 Z M 16.453125 -14.09375 C 16.453125 -15.101562 16.113281 -15.894531 15.4375 -16.46875 C 14.769531 -17.039062 13.929688 -17.328125 12.921875 -17.328125 C 11.910156 -17.328125 11.082031 -17.050781 10.4375 -16.5 C 9.800781 -15.957031 9.382812 -15.15625 9.1875 -14.09375 Z M 16.453125 -14.09375 "/></g></g></g><g fill="#000000" fill-opacity="1"><g transform="translate(316.653215, 166.077251)"><g/></g></g><g fill="#000000" fill-opacity="1"><g transform="translate(324.666265, 166.077251)"><g><path d="M 21.0625 -4.828125 L 10.578125 -4.828125 L 8.984375 0 L 0.328125 0 L 11.125 -29.578125 L 20.59375 -29.578125 L 31.34375 0 L 22.65625 0 Z M 19 -11.125 L 15.8125 -20.6875 L 12.671875 -11.125 Z M 19 -11.125 "/></g></g></g><g fill="#000000" fill-opacity="1"><g transform="translate(356.340888, 166.077251)"><g><path d="M 10.578125 -29.578125 L 10.578125 0 L 2.34375 0 L 2.34375 -29.578125 Z M 10.578125 -29.578125 "/></g></g></g></svg>